<?xml version="1.0" standalone="no"?><!-- Generator: Gravit.io --><svg xmlns="http://www.w3.org/2000/svg" xmlns:xlink="http://www.w3.org/1999/xlink" style="isolation:isolate" viewBox="0 0 1920 1080" width="1920" height="1080"><defs><clipPath id="_clipPath_rBtPNDGAg7lbw6W05M5ML0pAUuAxAMEg"><rect width="1920" height="1080"/></clipPath></defs><g clip-path="url(#_clipPath_rBtPNDGAg7lbw6W05M5ML0pAUuAxAMEg)"><g id="Group"><rect x="351.666" y="301.532" width="240" height="67" transform="matrix(1,0,0,1,0,0)" fill="rgb(210,210,141)"/><rect x="471.666" y="370.09" width="240" height="268" transform="matrix(1,0,0,1,0,0)" fill="rgb(227,227,190)"/><rect x="708.666" y="599.532" width="240" height="134" transform="matrix(1,0,0,1,0,0)" fill="rgb(227,227,190)"/><rect x="591.666" y="301.532" width="240" height="67" transform="matrix(1,0,0,1,0,0)" fill="rgb(174,210,141)"/><rect x="831.666" y="301.532" width="240" height="67" transform="matrix(1,0,0,1,0,0)" fill="rgb(141,210,166)"/><rect x="1071.666" y="301.532" width="240" height="67" transform="matrix(1,0,0,1,0,0)" fill="rgb(141,192,210)"/><rect x="1311.666" y="301.532" width="240" height="67" transform="matrix(1,0,0,1,0,0)" fill="rgb(141,162,210)"/><rect x="1551.666" y="301.532" width="240" height="67" transform="matrix(1,0,0,1,0,0)" fill="rgb(170,141,210)"/><path d=" M 230.721 471.451 C 231.404 445.551 250.765 432.553 261.675 410.733 C 270.627 405.362 271.01 401.588 272.39 398.827 C 278.262 387.085 288.248 374.636 297.392 365.492 C 306.743 356.141 317.694 351.142 324.774 344.062 C 331.267 337.57 346.916 335.728 355.729 335.728 C 356.919 335.728 359.3 335.728 359.3 335.728" fill="none" vector-effect="non-scaling-stroke" stroke-width="1" stroke="rgb(0,0,0)" stroke-linejoin="miter" stroke-linecap="square" stroke-miterlimit="3"/><path d=" M 303.345 289.297 C 306.253 288.694 310.651 293.109 312.869 294.059 C 326.1 299.73 339.199 309.01 349.776 314.298 C 349.776 320.806 362.872 323.692 362.872 333.347 C 362.872 337.237 363.712 341.542 362.872 344.062 C 360.845 350.142 359.624 363.978 355.729 367.873 C 351.46 372.142 350.462 380.788 348.585 384.541" fill="none" vector-effect="non-scaling-stroke" stroke-width="1" stroke="rgb(0,0,0)" stroke-linejoin="miter" stroke-linecap="square" stroke-miterlimit="3"/><path d=" M 128.334 505.977 C 137.757 508.492 159.209 504.416 168.813 501.215 C 173.986 501.215 180.868 500.544 184.29 498.834" fill="none" vector-effect="non-scaling-stroke" stroke-width="1" stroke="rgb(0,0,0)" stroke-linejoin="miter" stroke-linecap="square" stroke-miterlimit="3"/><path d=" M 155.716 486.928 C 155.924 496.833 150.707 523.588 158.098 530.978 C 158.098 543.445 176.353 538.122 181.909 538.122 C 185.661 538.122 186.951 536.37 187.861 534.55" fill="none" vector-effect="non-scaling-stroke" stroke-width="1" stroke="rgb(0,0,0)" stroke-linejoin="miter" stroke-linecap="square" stroke-miterlimit="3"/><path d=" M 225.959 514.311 C 225.959 514.311 223.578 504.786 223.578 504.786 C 221.152 499.936 216.763 501.215 211.672 501.215 C 204.054 501.215 203.338 512.139 203.338 519.073 C 203.338 531.252 206.342 538.122 216.434 538.122 C 223.841 538.122 223.578 520.351 223.578 514.311 C 223.578 499.992 225.959 523.056 225.959 527.407 C 225.959 531.728 236.084 535.446 239.055 536.931" fill="none" vector-effect="non-scaling-stroke" stroke-width="1" stroke="rgb(0,0,0)" stroke-linejoin="miter" stroke-linecap="square" stroke-miterlimit="3"/><path d=" M 262.866 470.26 C 262.866 470.26 265.247 479.785 265.247 479.785 C 268.339 493.698 267.377 513.808 273.581 526.216 C 273.581 537.766 275.962 546.271 275.962 557.17" fill="none" vector-effect="non-scaling-stroke" stroke-width="1" stroke="rgb(0,0,0)" stroke-linejoin="miter" stroke-linecap="square" stroke-miterlimit="3"/><path d=" M 267.628 511.93 C 275.392 504.165 293.987 501.298 303.345 505.977 C 310.143 519.573 316.441 522.265 316.441 536.931 C 316.441 551.015 307.194 551.218 296.201 551.218 C 287.883 551.218 282.427 548.837 275.962 548.837" fill="none" vector-effect="non-scaling-stroke" stroke-width="1" stroke="rgb(0,0,0)" stroke-linejoin="miter" stroke-linecap="square" stroke-miterlimit="3"/><g transform="matrix(1,0,0,1,483.666,599.532)"><text transform="matrix(1,0,0,1,0,23.515)" style="font-family:&quot;Open Sans&quot;;font-weight:400;font-size:22px;font-style:normal;fill:#000000;stroke:none;">Tab Stack For Firefox</text></g><g transform="matrix(1,0,0,1,781.166,616.282)"><text transform="matrix(1,0,0,1,0,23.515)" style="font-family:&quot;Open Sans&quot;;font-weight:400;font-size:22px;font-style:normal;fill:#000000;stroke:none;">Stack Tab</text></g><g transform="matrix(1,0,0,1,736.666,678.532)"><text transform="matrix(1,0,0,1,0,23.515)" style="font-family:&quot;Open Sans&quot;;font-weight:400;font-size:22px;font-style:normal;fill:#000000;stroke:none;">Change Active Tab</text></g><path d=" M 378.17 504.984 C 373.435 495.503 348.583 482.738 341.649 493.139 C 327.404 507.384 335.129 515.243 345.598 525.712 C 354.873 534.987 371.122 530.509 379.157 538.544 C 387.891 547.278 372.132 566.181 364.352 566.181 C 347.006 566.181 335.727 563.903 335.727 547.427" fill="none" vector-effect="non-scaling-stroke" stroke-width="1" stroke="rgb(0,0,0)" stroke-linejoin="miter" stroke-linecap="square" stroke-miterlimit="3"/><path d=" M 965.466 610.599 C 964.432 616.119 954.137 621.371 952.635 627.378 C 951.887 630.371 950.576 633.554 949.673 636.262 C 949.673 647.156 967.432 654.026 967.44 654.029" fill="none" vector-effect="non-scaling-stroke" stroke-width="1" stroke="rgb(0,0,0)" stroke-linejoin="miter" stroke-linecap="square" stroke-miterlimit="3"/><path d=" M 949.673 636.262 C 959.939 636.262 975.693 635.485 985.207 632.314 C 1001.876 632.314 1008.377 620.001 1016.793 611.586 C 1023.673 604.706 1023.702 580.475 1023.702 572.104 C 1023.702 559.829 1037.506 548.414 1047.392 548.414 C 1053.314 548.414 1057.262 548.414 1061.21 548.414" fill="none" vector-effect="non-scaling-stroke" stroke-width="1" stroke="rgb(0,0,0)" stroke-linejoin="miter" stroke-linecap="square" stroke-miterlimit="3"/><g transform="matrix(1,0,0,1,1061.21,533.943)"><text transform="matrix(1,0,0,1,0,17.6)" style="font-family:&quot;A-OTF e°0´ Pr6 EL&quot;;font-weight:400;font-size:20px;font-style:normal;fill:#000000;stroke:none;">スタックするタブのグループを選択する</text></g><g transform="matrix(1,0,0,1,1078.666,767.532)"><text transform="matrix(1,0,0,1,0,17.6)" style="font-family:&quot;A-OTF e°0´ Pr6 EL&quot;;font-weight:400;font-size:20px;font-style:normal;fill:#000000;stroke:none;">スタック内のタブほかのタブを選択する</text></g><path d=" M 966.166 678.032 C 955.85 682.079 952.074 684.309 948.666 694.532 C 948.666 705.177 956.259 708.217 960.166 716.032 C 960.666 717.032 961.666 719.532 961.666 719.532" fill="none" vector-effect="non-scaling-stroke" stroke-width="1" stroke="rgb(0,0,0)" stroke-linejoin="miter" stroke-linecap="square" stroke-miterlimit="3"/><path d=" M 948.666 695.532 C 948.666 695.532 976.666 696.032 976.666 696.032 C 989.426 696.032 997.309 694.175 1005.166 702.032 C 1012.034 708.9 1011.664 719.028 1015.166 726.032 C 1018.646 732.991 1020.166 743.851 1020.166 750.532 C 1020.166 758.981 1022.377 766.452 1025.666 773.032 C 1029.77 781.239 1036.743 785.032 1045.166 785.032 C 1053.671 785.032 1061.197 783.532 1067.666 783.532 C 1072.938 783.532 1077.701 782.996 1080.666 780.032" fill="none" vector-effect="non-scaling-stroke" stroke-width="1" stroke="rgb(0,0,0)" stroke-linejoin="miter" stroke-linecap="square" stroke-miterlimit="3"/></g></g></svg>